<svg width="30" height="24" viewBox="0 0 30 24" fill="none" xmlns="http://www.w3.org/2000/svg">
<path d="M21.3095 24H8.69046C8.09522 24 7.60203 23.5112 7.60203 22.9213V16.9719H1.08843C0.493196 16.9719 0 16.4831 0 15.8933C0 13.2472 0.850339 10.8034 2.39795 9.05056C3.74149 7.51685 5.5272 6.57303 7.51699 6.32022V1.07865C7.51699 0.488764 8.01019 0 8.60543 0H13.4864C15.9183 0 18.1462 0.960674 19.7449 2.69663C20.6972 3.72472 21.3775 4.97191 21.7347 6.28652C26.8707 6.72472 29.9999 11.073 29.9999 15.118C30.0169 20.0899 26.1904 24 21.3095 24ZM9.77889 21.8427H21.3095C24.9659 21.8427 27.8401 18.8933 27.8401 15.118C27.8401 12.1854 25.6632 9.05056 22.0408 8.49438C22.0408 12.573 18.7585 16.9719 13.4864 16.9719H9.77889V21.8427ZM2.22789 14.8146H13.4864C16.0714 14.8146 19.8809 12.809 19.8809 8.47753C19.8809 8.44382 19.8809 8.42697 19.8809 8.39326H8.60543C5.18706 8.41011 2.63605 11.0393 2.22789 14.8146ZM9.69386 6.25281H19.4557C18.5884 4.02809 16.4796 2.1573 13.4864 2.1573H9.69386V6.25281Z" fill="url(#paint0_linear_8449_18547)"/>
<defs>
<linearGradient id="paint0_linear_8449_18547" x1="0.0640133" y1="2.56539" x2="29.7336" y2="25.7103" gradientUnits="userSpaceOnUse">
<stop offset="0.1241" stop-color="#5024B1"/>
<stop offset="0.1606" stop-color="#5224BC"/>
<stop offset="0.3177" stop-color="#5A22E8"/>
<stop offset="0.3975" stop-color="#5D21F9"/>
<stop offset="0.8011" stop-color="#EE296A"/>
</linearGradient>
</defs>
</svg>
